# Blender v3.0.1 OBJ File: 'Escena.blend'
# www.blender.org
mtllib Wall2.mtl
o Wall1_Cube.004
v 0.612360 0.000000 -0.023058
v 0.612360 0.994811 -0.023058
v 0.612360 0.000000 0.023058
v 0.612360 0.994811 0.023058
v -0.612703 0.000000 -0.023058
v -0.612703 0.994811 -0.023058
v -0.612703 0.000000 0.023058
v -0.612703 0.994811 0.023058
vt 0.453724 0.720406
vt 0.453724 0.987470
vt 0.441344 0.987470
vt 0.441344 0.720406
vt 0.279595 0.695346
vt 0.012530 0.695346
vt 0.012530 0.366468
vt 0.279595 0.366468
vt 0.366462 0.987470
vt 0.366463 0.720406
vt 0.378843 0.720406
vt 0.378843 0.987470
vt 0.863846 0.695346
vt 0.596781 0.695346
vt 0.596781 0.366468
vt 0.863846 0.366468
vt 0.888906 0.695348
vt 0.888906 0.366469
vt 0.901286 0.366469
vt 0.901286 0.695348
vt 0.901286 0.012530
vt 0.901286 0.341409
vt 0.888906 0.341409
vt 0.888907 0.012530
vn 1.0000 0.0000 0.0000
vn -0.0000 0.0000 1.0000
vn -1.0000 0.0000 0.0000
vn 0.0000 0.0000 -1.0000
vn 0.0000 -1.0000 0.0000
vn 0.0000 1.0000 0.0000
usemtl Wall1
s off
f 1/1/1 2/2/1 4/3/1 3/4/1
f 3/5/2 4/6/2 8/7/2 7/8/2
f 7/9/3 8/10/3 6/11/3 5/12/3
f 5/13/4 6/14/4 2/15/4 1/16/4
f 3/17/5 7/18/5 5/19/5 1/20/5
f 8/21/6 4/22/6 2/23/6 6/24/6
