# Blender v3.0.1 OBJ File: 'Escena.blend'
# www.blender.org
mtllib WallDoor2.mtl
o door_room_Cube.006
v -0.610550 0.000000 0.023058
v -0.610550 0.994814 0.023058
v -0.610550 0.000000 -0.023058
v -0.610550 0.994814 -0.023058
v 0.614516 0.000000 0.023058
v 0.614516 0.994814 0.023058
v 0.614516 0.000000 -0.023058
v 0.614516 0.994814 -0.023058
v -0.239707 0.805080 -0.023058
v -0.239723 0.805070 0.023058
v 0.236144 0.804937 -0.023058
v 0.236128 0.804946 0.023058
v 0.247036 0.000000 0.023058
v 0.247026 0.000000 -0.023058
v 0.473945 0.392785 0.023058
v 0.473945 0.392767 -0.023058
v -0.250992 0.000000 0.023058
v -0.251003 0.000000 -0.023058
v -0.477756 0.393053 -0.023058
v -0.477756 0.393034 0.023058
v 0.614516 0.392510 -0.023058
v 0.614516 0.392510 0.023058
v -0.610550 0.395805 0.023058
v -0.610550 0.395805 -0.023058
vt 0.544345 0.136972
vt 0.544345 0.328532
vt 0.529597 0.328532
vt 0.529597 0.136972
vt 0.010394 0.667460
vt 0.010394 0.540882
vt 0.052861 0.541763
vt 0.125376 0.667460
vt 0.494061 0.203010
vt 0.494061 0.010394
vt 0.508809 0.010394
vt 0.508809 0.203010
vt 0.010394 0.328533
vt 0.010394 0.203009
vt 0.055348 0.202921
vt 0.127913 0.328533
vt 0.422955 0.010398
vt 0.422989 0.125381
vt 0.437737 0.125380
vt 0.437703 0.010394
vt 0.458526 0.402168
vt 0.458525 0.010394
vt 0.473273 0.010394
vt 0.473273 0.402168
vt 0.437731 0.270492
vt 0.422983 0.270496
vt 0.437709 0.727017
vt 0.422962 0.727022
vt 0.422969 0.574846
vt 0.437716 0.574841
vt 0.422976 0.422670
vt 0.437723 0.422666
vt 0.437703 0.872083
vt 0.422955 0.872084
vt 0.422990 0.989606
vt 0.437737 0.989602
vt 0.281164 0.410043
vt 0.402167 0.349321
vt 0.402167 0.541936
vt 0.357212 0.541854
vt 0.128989 0.409997
vt 0.010394 0.349321
vt 0.494061 0.328533
vt 0.508809 0.328533
vt 0.544345 0.010394
vt 0.529597 0.010394
vt 0.402167 0.667460
vt 0.284645 0.667460
vt 0.010394 0.010394
vt 0.131402 0.071114
vt 0.359700 0.202842
vt 0.402167 0.201955
vt 0.402167 0.328533
vt 0.287181 0.328533
vt 0.283577 0.071074
vt 0.402167 0.010394
vn -1.0000 0.0000 0.0000
vn 0.0000 0.0000 -1.0000
vn 1.0000 0.0000 0.0000
vn -0.0000 0.0000 1.0000
vn 0.0000 -1.0000 0.0000
vn 0.0000 1.0000 0.0000
vn -0.8662 -0.4997 -0.0000
vn 0.8662 0.4998 0.0000
vn 0.0003 1.0000 0.0000
vn 0.8659 -0.5002 0.0000
vn -0.8659 0.5002 -0.0000
usemtl wall_room2
s off
f 23/1/1 2/2/1 4/3/1 24/4/1
f 3/5/2 24/6/2 19/7/2 18/8/2
f 21/9/3 8/10/3 6/11/3 22/12/3
f 5/13/4 22/14/4 15/15/4 13/16/4
f 3/17/5 18/18/5 17/19/5 1/20/5
f 8/21/6 4/22/6 2/23/6 6/24/6
f 20/25/7 19/26/7 18/18/7 17/19/7
f 15/27/8 16/28/8 11/29/8 12/30/8
f 12/30/9 11/29/9 9/31/9 10/32/9
f 16/28/10 15/27/10 13/33/10 14/34/10
f 13/33/5 14/34/5 7/35/5 5/36/5
f 10/32/11 9/31/11 19/26/11 20/25/11
f 11/37/2 8/38/2 21/39/2 16/40/2
f 9/41/2 4/42/2 8/38/2 11/37/2
f 7/43/3 21/9/3 22/12/3 5/44/3
f 1/45/1 23/1/1 24/4/1 3/46/1
f 16/40/2 21/39/2 7/47/2 14/48/2
f 15/15/4 22/14/4 6/49/4 12/50/4
f 20/51/4 23/52/4 1/53/4 17/54/4
f 19/7/2 24/6/2 4/42/2 9/41/2
f 10/55/4 2/56/4 23/52/4 20/51/4
f 12/50/4 6/49/4 2/56/4 10/55/4
