# Blender v3.0.1 OBJ File: 'EstructurasEscenablend.blend'
# www.blender.org
mtllib Pasillo3.mtl
o corridor_triangle_Cylinder.002
v -8.241856 0.411312 0.801025
v -2.575090 0.411312 0.801025
v -8.241856 0.412862 4.733986
v -2.575090 0.412861 4.733990
v -8.241856 3.819684 6.699127
v -2.575089 3.819684 6.699127
v -8.241856 7.224952 4.731300
v -2.575090 7.224951 4.731300
v -8.241856 7.223401 0.798340
v -2.575090 7.223400 0.798340
v -8.241856 3.816581 -1.166798
v -8.241856 0.757436 1.000679
v -8.241856 0.758829 4.534061
v -8.241856 3.819526 6.299545
v -8.241856 6.878828 4.531646
v -8.241856 6.877434 0.998264
v -8.241856 3.816739 -0.767220
v -8.651201 0.757436 1.000679
v -8.651201 0.758829 4.534061
v -8.651201 3.819526 6.299545
v -8.651201 6.878828 4.531646
v -8.651201 6.877434 0.998264
v -8.651201 3.816739 -0.767220
v -8.651201 0.408165 0.799210
v -8.651201 0.409716 4.735806
v -8.651201 3.819685 6.702759
v -8.651201 7.228099 4.733116
v -8.651201 7.226547 0.796520
v -8.651201 3.816580 -1.170433
v -9.087982 0.408165 0.799210
v -9.087982 0.409716 4.735806
v -9.087982 3.819685 6.702759
v -9.087982 7.228099 4.733116
v -9.087982 7.226547 0.796520
v -9.087982 3.816580 -1.170433
v -9.087982 0.755551 0.999592
v -9.087982 0.756944 4.535149
v -9.087982 3.819527 6.301723
v -9.087982 6.880714 4.532733
v -9.087982 6.879319 0.997177
v -9.087982 3.816738 -0.769394
v -9.546696 0.755551 0.999592
v -9.546696 0.756944 4.535149
v -9.546696 3.819527 6.301723
v -9.546696 6.880714 4.532733
v -9.546696 6.879319 0.997177
v -9.546696 3.816738 -0.769394
v -9.546696 0.399109 0.793987
v -9.546696 0.400664 4.741035
v -9.546696 3.819690 6.713211
v -9.546696 7.237156 4.738338
v -9.546696 7.235598 0.791290
v -9.546696 3.816576 -1.180885
v -10.150785 0.399109 0.793987
v -10.150785 0.400664 4.741035
v -10.150785 3.819690 6.713211
v -10.150785 7.237156 4.738338
v -10.150785 7.235598 0.791290
v -10.150785 3.816576 -1.180885
v -10.150785 -0.000869 0.563271
v -10.150785 0.000868 4.972069
v -10.150785 3.819872 7.174963
v -10.150785 7.637135 4.969055
v -10.150785 7.635395 0.560257
v -10.150785 3.816395 -1.642639
v -6.058353 -0.000869 0.563271
v -6.058354 0.000868 4.972069
v -6.058353 3.819872 7.174965
v -6.058353 7.637135 4.969055
v -6.058353 7.635395 0.560257
v -6.058353 3.816395 -1.642635
v 8.438354 0.411312 4.731304
v 2.447253 0.411312 4.731308
v 8.438354 0.412861 0.798344
v 2.447253 0.412861 0.798344
v 8.438354 3.819684 -1.166794
v 8.438354 7.224951 0.801033
v 2.447253 7.224951 0.801033
v 8.438354 7.223400 4.733993
v 2.447253 7.223400 4.733993
v 8.438354 3.816581 6.699131
v 2.447253 3.816581 6.699135
v 8.438354 0.757436 4.531654
v 8.438354 0.758828 0.998268
v 8.438354 3.819526 -0.767216
v 8.438354 6.878828 1.000682
v 8.438354 6.877433 4.534065
v 8.438354 3.816739 6.299553
v 8.847699 0.757436 4.531654
v 8.847699 0.758828 0.998268
v 8.847699 3.819526 -0.767216
v 8.847699 6.878828 1.000682
v 8.847699 6.877433 4.534065
v 8.847699 3.816739 6.299553
v 8.847699 0.408165 4.733120
v 8.847699 0.409715 0.796524
v 8.847699 3.819685 -1.170429
v 8.847699 7.228099 0.799217
v 8.847699 7.226546 4.735809
v 8.847699 3.816580 6.702763
v 9.284480 0.408165 4.733120
v 9.284480 0.409715 0.796524
v 9.284480 3.819686 -1.170429
v 9.284480 7.228099 0.799217
v 9.284480 7.226547 4.735809
v 9.284480 3.816581 6.702763
v 9.284480 0.755551 4.532738
v 9.284480 0.756944 0.997181
v 9.284480 3.819527 -0.769394
v 9.284480 6.880714 0.999595
v 9.284480 6.879319 4.535156
v 9.284480 3.816739 6.301727
v 9.743194 0.755551 4.532738
v 9.743194 0.756944 0.997181
v 9.743194 3.819527 -0.769394
v 9.743194 6.880714 0.999595
v 9.743194 6.879319 4.535156
v 9.743194 3.816739 6.301727
v 9.743194 0.399109 4.738342
v 9.743194 0.400664 0.791294
v 9.743194 3.819690 -1.180882
v 9.743194 7.237156 0.793991
v 9.743194 7.235598 4.741043
v 9.743194 3.816576 6.713219
v 10.347283 0.399109 4.738342
v 10.347283 0.400664 0.791294
v 10.347283 3.819690 -1.180882
v 10.347283 7.237156 0.793991
v 10.347283 7.235598 4.741043
v 10.347283 3.816576 6.713219
v 10.347283 -0.000869 4.969063
v 10.347283 0.000868 0.560261
v 10.347283 3.819872 -1.642632
v 10.347283 7.637135 0.563274
v 10.347283 7.635395 4.972076
v 10.347283 3.816394 7.174969
v 5.951802 -0.000869 4.969063
v 5.951802 0.000867 0.560265
v 5.951802 3.819872 -1.642632
v 5.951804 7.637134 0.563278
v 5.951802 7.635394 4.972076
v 5.951802 3.816394 7.174969
v 4.369384 3.819684 -1.166794
v 4.370412 3.817904 -1.641762
v -2.247581 -0.000318 0.562317
v -4.445385 3.819120 -1.641842
v -4.446319 3.819872 -1.164902
v 2.173538 7.626469 0.556480
v -2.245835 7.627745 0.556476
v 2.219789 0.000328 0.561199
v 1.928618 0.411312 -8.075546
v 1.928622 0.411312 -1.610569
v -2.004343 0.412861 -8.075546
v -2.004343 0.412861 -1.610569
v -3.969481 3.819685 -8.075546
v -3.969481 3.819684 -1.610569
v -2.001655 7.224952 -8.075546
v -2.001655 7.224952 -1.610569
v 1.931307 7.223401 -8.075546
v 1.931307 7.223401 -1.610569
v 3.896445 3.816582 -8.075546
v 3.896445 3.816581 -1.610569
v 1.728966 0.757436 -8.075546
v -1.804417 0.758828 -8.075546
v -3.569901 3.819527 -8.075546
v -1.802002 6.878828 -8.075546
v 1.731380 6.877434 -8.075546
v 3.496864 3.816739 -8.075546
v 1.728966 0.757436 -8.484894
v -1.804417 0.758828 -8.484894
v -3.569901 3.819526 -8.484894
v -1.802002 6.878828 -8.484894
v 1.731380 6.877434 -8.484894
v 3.496864 3.816739 -8.484894
v 1.930434 0.408165 -8.484894
v -2.006161 0.409715 -8.484894
v -3.973114 3.819685 -8.484894
v -2.003469 7.228100 -8.484894
v 1.933125 7.226547 -8.484894
v 3.900077 3.816580 -8.484894
v 1.930434 0.408164 -8.921673
v -2.006161 0.409715 -8.921673
v -3.973114 3.819685 -8.921673
v -2.003469 7.228100 -8.921673
v 1.933125 7.226547 -8.921673
v 3.900077 3.816580 -8.921673
v 1.730053 0.755550 -8.921673
v -1.805506 0.756943 -8.921673
v -3.572079 3.819527 -8.921673
v -1.803089 6.880714 -8.921673
v 1.732470 6.879319 -8.921673
v 3.499042 3.816738 -8.921673
v 1.730053 0.755550 -9.380386
v -1.805506 0.756943 -9.380386
v -3.572079 3.819527 -9.380386
v -1.803089 6.880714 -9.380386
v 1.732470 6.879319 -9.380386
v 3.499042 3.816738 -9.380386
v 1.935658 0.399108 -9.380386
v -2.011392 0.400663 -9.380386
v -3.983568 3.819690 -9.380386
v -2.008694 7.237156 -9.380386
v 1.938355 7.235599 -9.380386
v 3.910533 3.816576 -9.380386
v 1.935658 0.399108 -9.984474
v -2.011392 0.400663 -9.984474
v -3.983568 3.819690 -9.984474
v -2.008694 7.237157 -9.984474
v 1.938355 7.235599 -9.984474
v 3.910533 3.816576 -9.984474
v 2.166374 -0.000869 -9.984474
v -2.242424 0.000868 -9.984474
v -4.445318 3.819872 -9.984474
v -2.239410 7.637136 -9.984474
v 2.169388 7.635395 -9.984474
v 4.372283 3.816395 -9.984474
v 2.166374 -0.000869 -1.641914
v -2.242424 0.000868 -1.641914
v -2.239410 7.637136 -1.641915
v 2.169388 7.635396 -1.641915
v 4.372283 3.816395 -1.641914
vn 0.0000 1.0000 -0.0004
vn 0.0000 0.4997 -0.8662
vn -0.0000 -0.5003 -0.8658
vn -0.0000 -1.0000 0.0004
vn 0.0003 -0.5000 -0.8660
vn -0.0000 0.4998 -0.8662
vn 0.0000 -0.4997 0.8662
vn 0.0000 0.5003 0.8658
vn -1.0000 0.0000 0.0000
vn -0.0000 1.0000 0.0004
vn -0.0001 -0.4997 -0.8662
vn -0.0002 0.5001 -0.8660
vn 0.0000 -1.0000 -0.0004
vn -0.0000 -0.4997 -0.8662
vn -0.0000 0.5003 -0.8658
vn 0.0000 -0.5003 0.8658
vn -0.0000 0.4997 0.8662
vn 1.0000 0.0000 0.0000
vn -0.0000 -1.0000 0.0000
vn 0.0000 -0.5000 -0.8660
vn 0.0002 1.0000 -0.0021
vn -0.0000 0.5000 0.8660
vn 0.0000 0.5000 -0.8660
vn -0.0000 -0.5000 0.8660
vn -0.0000 1.0000 -0.0000
vn 0.0001 -1.0000 0.0004
vn -0.0003 0.4999 0.8661
vn -0.8439 0.5287 -0.0908
vn 0.8727 -0.4882 0.0065
vn -0.8463 -0.5258 -0.0855
vn 0.8576 0.5128 -0.0401
vn 0.0001 -1.0000 -0.0004
vn -0.0028 1.0000 0.0004
vn 0.0020 1.0000 -0.0004
vn -0.0001 -1.0000 -0.0000
vn -0.0003 0.5168 0.8561
vn 0.0005 -0.5000 0.8660
vn 0.0004 1.0000 0.0000
vn 0.8662 0.4997 0.0000
vn 0.8658 -0.5003 0.0000
vn -0.0004 -1.0000 0.0000
vn -0.8662 -0.4997 0.0000
vn -0.8658 0.5003 0.0000
vn 0.0000 0.0000 -1.0000
vn 0.8663 0.4995 0.0004
vn -0.7978 -0.5354 0.2772
vn 0.0003 1.0000 0.0042
vn 0.8659 -0.4998 -0.0207
vn -0.7980 0.5355 0.2765
vn 0.7951 0.5317 0.2918
vn 0.7946 -0.5322 0.2921
vn -0.8662 -0.4997 -0.0023
vn -0.8659 0.5003 -0.0004
vn -0.0000 0.0000 1.0000
usemtl corridor_glass
s off
f 1//1 3//1 4//1 2//1
f 3//2 5//2 6//2 4//2
f 5//3 7//3 8//3 6//3
f 7//4 9//4 10//4 8//4
f 71//5 146//5 145//5 66//5
f 71//6 70//6 149//6 146//6
f 28//7 34//7 35//7 29//7
f 26//3 32//3 33//3 27//3
f 24//1 30//1 31//1 25//1
f 29//8 35//8 30//8 24//8
f 27//4 33//4 34//4 28//4
f 25//2 31//2 32//2 26//2
f 50//3 56//3 57//3 51//3
f 48//1 54//1 55//1 49//1
f 53//8 59//8 54//8 48//8
f 51//4 57//4 58//4 52//4
f 49//2 55//2 56//2 50//2
f 52//7 58//7 59//7 53//7
f 55//9 61//9 62//9 56//9
f 58//9 64//9 65//9 59//9
f 56//9 62//9 63//9 57//9
f 54//9 60//9 61//9 55//9
f 59//9 65//9 60//9 54//9
f 57//9 63//9 64//9 58//9
f 60//4 66//4 67//4 61//4
f 65//3 71//3 66//3 60//3
f 63//1 69//1 70//1 64//1
f 61//7 67//7 68//7 62//7
f 64//2 70//2 71//2 65//2
f 62//8 68//8 69//8 63//8
f 72//10 74//10 75//10 73//10
f 138//11 150//11 144//11 139//11
f 140//12 139//12 144//12 148//12
f 77//13 79//13 80//13 78//13
f 79//14 81//14 82//14 80//14
f 81//15 72//15 73//15 82//15
f 99//14 105//14 106//14 100//14
f 97//16 103//16 104//16 98//16
f 95//10 101//10 102//10 96//10
f 100//15 106//15 101//15 95//15
f 98//13 104//13 105//13 99//13
f 96//17 102//17 103//17 97//17
f 121//16 127//16 128//16 122//16
f 119//10 125//10 126//10 120//10
f 124//15 130//15 125//15 119//15
f 122//13 128//13 129//13 123//13
f 120//17 126//17 127//17 121//17
f 123//14 129//14 130//14 124//14
f 126//18 132//18 133//18 127//18
f 129//18 135//18 136//18 130//18
f 127//18 133//18 134//18 128//18
f 125//18 131//18 132//18 126//18
f 130//18 136//18 131//18 125//18
f 128//18 134//18 135//18 129//18
f 131//13 137//13 138//13 132//13
f 136//16 142//16 137//16 131//16
f 134//10 140//10 141//10 135//10
f 132//14 138//14 139//14 133//14
f 135//17 141//17 142//17 136//17
f 133//15 139//15 140//15 134//15
f 10//19 78//19 80//19 8//19
f 9//7 11//7 147//7 10//7
f 8//20 80//20 82//20 6//20
f 69//21 141//21 148//21 149//21
f 68//22 142//22 141//22 69//22
f 6//23 82//23 73//23 4//23
f 67//24 137//24 142//24 68//24
f 4//25 73//25 75//25 2//25
f 66//26 145//26 67//26
f 1//27 2//27 147//27 11//27
f 75//17 74//17 76//17 143//17
f 146//28 147//28 10//28 149//28
f 144//29 143//29 75//29 150//29
f 145//30 2//30 147//30 146//30
f 148//31 78//31 143//31 144//31
f 150//32 138//32 137//32
f 141//33 140//33 148//33
f 149//34 70//34 69//34
f 145//35 150//35 137//35 67//35
f 76//16 77//16 78//16 143//16
f 10//36 78//36 148//36 149//36
f 75//37 2//37 145//37 150//37
f 151//38 153//38 154//38 152//38
f 153//39 155//39 156//39 154//39
f 155//40 157//40 158//40 156//40
f 157//41 159//41 160//41 158//41
f 159//42 161//42 162//42 160//42
f 161//43 151//43 152//43 162//43
f 179//42 185//42 186//42 180//42
f 177//40 183//40 184//40 178//40
f 175//38 181//38 182//38 176//38
f 180//43 186//43 181//43 175//43
f 178//41 184//41 185//41 179//41
f 176//39 182//39 183//39 177//39
f 201//40 207//40 208//40 202//40
f 199//38 205//38 206//38 200//38
f 204//43 210//43 205//43 199//43
f 202//41 208//41 209//41 203//41
f 200//39 206//39 207//39 201//39
f 203//42 209//42 210//42 204//42
f 206//44 212//44 213//44 207//44
f 209//44 215//44 216//44 210//44
f 207//44 213//44 214//44 208//44
f 205//44 211//44 212//44 206//44
f 210//44 216//44 211//44 205//44
f 208//44 214//44 215//44 209//44
f 211//41 217//41 218//41 212//41
f 216//40 221//40 217//40 211//40
f 214//38 219//38 220//38 215//38
f 212//42 218//42 146//42 213//42
f 215//39 220//39 221//39 216//39
f 213//43 146//43 219//43 214//43
f 220//45 148//45 144//45
f 160//46 162//46 143//46 78//46
f 158//19 160//19 78//19 10//19
f 220//47 219//47 149//47 148//47
f 217//48 144//48 150//48
f 162//49 152//49 75//49 143//49
f 2//25 75//25 152//25 154//25
f 147//50 2//50 154//50 156//50
f 10//51 147//51 156//51 158//51
f 218//52 145//52 146//52
f 218//35 217//35 150//35 145//35
f 219//53 146//53 149//53
usemtl metal_door
f 9//18 16//18 17//18 11//18
f 3//18 13//18 14//18 5//18
f 1//18 12//18 13//18 3//18
f 5//18 14//18 15//18 7//18
f 11//18 17//18 12//18 1//18
f 7//18 15//18 16//18 9//18
f 16//7 22//7 23//7 17//7
f 14//3 20//3 21//3 15//3
f 12//1 18//1 19//1 13//1
f 17//8 23//8 18//8 12//8
f 15//4 21//4 22//4 16//4
f 13//2 19//2 20//2 14//2
f 23//9 29//9 24//9 18//9
f 21//9 27//9 28//9 22//9
f 19//9 25//9 26//9 20//9
f 22//9 28//9 29//9 23//9
f 20//9 26//9 27//9 21//9
f 18//9 24//9 25//9 19//9
f 35//18 41//18 36//18 30//18
f 33//18 39//18 40//18 34//18
f 31//18 37//18 38//18 32//18
f 34//18 40//18 41//18 35//18
f 32//18 38//18 39//18 33//18
f 30//18 36//18 37//18 31//18
f 40//7 46//7 47//7 41//7
f 38//3 44//3 45//3 39//3
f 36//1 42//1 43//1 37//1
f 41//8 47//8 42//8 36//8
f 39//4 45//4 46//4 40//4
f 37//2 43//2 44//2 38//2
f 45//9 51//9 52//9 46//9
f 43//9 49//9 50//9 44//9
f 46//9 52//9 53//9 47//9
f 44//9 50//9 51//9 45//9
f 42//9 48//9 49//9 43//9
f 47//9 53//9 48//9 42//9
f 79//9 87//9 88//9 81//9
f 74//9 84//9 85//9 76//9
f 72//9 83//9 84//9 74//9
f 76//9 85//9 86//9 77//9
f 81//9 88//9 83//9 72//9
f 77//9 86//9 87//9 79//9
f 87//14 93//14 94//14 88//14
f 85//16 91//16 92//16 86//16
f 83//10 89//10 90//10 84//10
f 88//15 94//15 89//15 83//15
f 86//13 92//13 93//13 87//13
f 84//17 90//17 91//17 85//17
f 94//18 100//18 95//18 89//18
f 92//18 98//18 99//18 93//18
f 90//18 96//18 97//18 91//18
f 93//18 99//18 100//18 94//18
f 91//18 97//18 98//18 92//18
f 89//18 95//18 96//18 90//18
f 106//9 112//9 107//9 101//9
f 104//9 110//9 111//9 105//9
f 102//9 108//9 109//9 103//9
f 105//9 111//9 112//9 106//9
f 103//9 109//9 110//9 104//9
f 101//9 107//9 108//9 102//9
f 111//14 117//14 118//14 112//14
f 109//16 115//16 116//16 110//16
f 107//10 113//10 114//10 108//10
f 112//15 118//15 113//15 107//15
f 110//13 116//13 117//13 111//13
f 108//17 114//17 115//17 109//17
f 116//18 122//18 123//18 117//18
f 114//18 120//18 121//18 115//18
f 117//18 123//18 124//18 118//18
f 115//18 121//18 122//18 116//18
f 113//18 119//18 120//18 114//18
f 118//18 124//18 119//18 113//18
f 159//54 167//54 168//54 161//54
f 153//54 164//54 165//54 155//54
f 151//54 163//54 164//54 153//54
f 155//54 165//54 166//54 157//54
f 161//54 168//54 163//54 151//54
f 157//54 166//54 167//54 159//54
f 167//42 173//42 174//42 168//42
f 165//40 171//40 172//40 166//40
f 163//38 169//38 170//38 164//38
f 168//43 174//43 169//43 163//43
f 166//41 172//41 173//41 167//41
f 164//39 170//39 171//39 165//39
f 174//44 180//44 175//44 169//44
f 172//44 178//44 179//44 173//44
f 170//44 176//44 177//44 171//44
f 173//44 179//44 180//44 174//44
f 171//44 177//44 178//44 172//44
f 169//44 175//44 176//44 170//44
f 186//54 192//54 187//54 181//54
f 184//54 190//54 191//54 185//54
f 182//54 188//54 189//54 183//54
f 185//54 191//54 192//54 186//54
f 183//54 189//54 190//54 184//54
f 181//54 187//54 188//54 182//54
f 191//42 197//42 198//42 192//42
f 189//40 195//40 196//40 190//40
f 187//38 193//38 194//38 188//38
f 192//43 198//43 193//43 187//43
f 190//41 196//41 197//41 191//41
f 188//39 194//39 195//39 189//39
f 196//44 202//44 203//44 197//44
f 194//44 200//44 201//44 195//44
f 197//44 203//44 204//44 198//44
f 195//44 201//44 202//44 196//44
f 193//44 199//44 200//44 194//44
f 198//44 204//44 199//44 193//44
