# Blender v3.0.1 OBJ File: 'EstructurasEscenablend.blend'
# www.blender.org
mtllib Pasillo4.mtl
o corridor_4ways_Cylinder.001
v 4.408344 3.816249 -4.399553
v 4.398825 3.816249 4.410010
v -1.965596 0.411167 8.334713
v 1.967365 0.412716 8.334713
v 3.932503 3.819539 8.334713
v 1.964677 7.224807 8.334713
v -1.968285 7.223256 8.334713
v -3.933421 3.816437 8.334713
v -1.765944 0.757291 8.334713
v 1.767439 0.758683 8.334713
v 3.532924 3.819381 8.334713
v 1.765024 6.878683 8.334713
v -1.768358 6.877289 8.334713
v -3.533842 3.816594 8.334713
v -1.765944 0.757291 8.744059
v 1.767439 0.758683 8.744059
v 3.532924 3.819381 8.744059
v 1.765024 6.878683 8.744059
v -1.768358 6.877289 8.744059
v -3.533842 3.816594 8.744059
v -1.967412 0.408019 8.744059
v 1.969183 0.409570 8.744059
v 3.936136 3.819541 8.744059
v 1.966492 7.227955 8.744059
v -1.970102 7.226402 8.744059
v -3.937055 3.816435 8.744059
v -1.967412 0.408019 9.180840
v 1.969183 0.409570 9.180840
v 3.936136 3.819541 9.180840
v 1.966492 7.227955 9.180840
v -1.970102 7.226402 9.180840
v -3.937055 3.816435 9.180840
v -1.767031 0.755405 9.180840
v 1.768528 0.756798 9.180840
v 3.535101 3.819382 9.180840
v 1.766111 6.880569 9.180840
v -1.769447 6.879174 9.180840
v -3.536019 3.816593 9.180840
v -1.767031 0.755405 9.639553
v 1.768528 0.756798 9.639553
v 3.535101 3.819382 9.639553
v 1.766111 6.880569 9.639553
v -1.769447 6.879174 9.639553
v -3.536019 3.816593 9.639553
v -1.972635 0.398963 9.639553
v 1.974414 0.400518 9.639553
v 3.946590 3.819545 9.639553
v 1.971716 7.237011 9.639553
v -1.975333 7.235454 9.639553
v -3.947510 3.816431 9.639553
v -1.972635 0.398963 10.243643
v 1.974414 0.400518 10.243643
v 3.946590 3.819545 10.243643
v 1.971716 7.237011 10.243643
v -1.975333 7.235454 10.243643
v -3.947510 3.816431 10.243643
v -2.203352 -0.001015 10.243643
v 2.205446 0.000722 10.243643
v 4.408340 3.819727 10.243643
v 2.202433 7.636990 10.243643
v -2.206366 7.635250 10.243643
v -4.409260 3.816249 10.243643
v 1.964681 0.411167 -8.345495
v -1.968281 0.412716 -8.345495
v -3.933418 3.819539 -8.345495
v -1.965592 7.224807 -8.345495
v 1.967369 7.223255 -8.345495
v 3.932507 3.816436 -8.345495
v 1.765028 0.757291 -8.345495
v -1.768354 0.758683 -8.345495
v -3.533839 3.819381 -8.345495
v -1.765940 6.878683 -8.345495
v 1.767443 6.877289 -8.345495
v 3.532927 3.816594 -8.345495
v 1.765028 0.757291 -8.754841
v -1.768354 0.758683 -8.754841
v -3.533839 3.819381 -8.754841
v -1.765940 6.878683 -8.754841
v 1.767443 6.877289 -8.754841
v 3.532927 3.816594 -8.754841
v 1.966496 0.408019 -8.754841
v -1.970098 0.409570 -8.754841
v -3.937052 3.819540 -8.754841
v -1.967407 7.227954 -8.754841
v 1.969187 7.226401 -8.754841
v 3.936138 3.816435 -8.754841
v 1.966496 0.408020 -9.191622
v -1.970098 0.409570 -9.191622
v -3.937052 3.819541 -9.191622
v -1.967407 7.227954 -9.191622
v 1.969187 7.226402 -9.191622
v 3.936138 3.816435 -9.191622
v 1.766115 0.755405 -9.191622
v -1.769444 0.756798 -9.191622
v -3.536016 3.819382 -9.191622
v -1.767027 6.880569 -9.191622
v 1.768532 6.879174 -9.191622
v 3.535104 3.816593 -9.191622
v 1.766115 0.755405 -9.650335
v -1.769444 0.756798 -9.650335
v -3.536016 3.819382 -9.650335
v -1.767027 6.880569 -9.650335
v 1.768532 6.879174 -9.650335
v 3.535104 3.816593 -9.650335
v 1.971720 0.398964 -9.650335
v -1.975329 0.400518 -9.650335
v -3.947506 3.819545 -9.650335
v -1.972631 7.237011 -9.650335
v 1.974418 7.235453 -9.650335
v 3.946594 3.816431 -9.650335
v 1.971720 0.398963 -10.254425
v -1.975329 0.400518 -10.254425
v -3.947506 3.819545 -10.254425
v -1.972631 7.237011 -10.254425
v 1.974418 7.235453 -10.254425
v 3.946594 3.816431 -10.254425
v 2.202436 -0.001014 -10.254425
v -2.206362 0.000722 -10.254425
v -4.409256 3.819727 -10.254425
v -2.203348 7.636990 -10.254425
v 2.205450 7.635250 -10.254425
v 4.408344 3.816249 -10.254425
v -2.208340 7.635708 -2.200888
v 2.199949 7.635653 2.209431
v 1.967369 7.223256 -2.435259
v -1.965591 7.224807 -2.435268
v 2.200947 7.635681 -2.199889
v -4.409260 3.816290 4.414078
v -4.407300 3.819686 4.416038
v 3.930676 3.816369 4.416040
v -3.933423 3.816436 4.414271
v -3.931658 3.819496 4.416037
v 1.964684 0.411166 -2.435331
v -1.968280 0.412716 -2.435324
v 2.199951 0.000319 -2.200981
v -2.209369 0.000292 -2.199955
v -4.409256 3.819727 -4.399580
v -4.407274 3.816291 -4.401563
v 3.931595 3.818022 -4.400645
v -3.933418 3.819539 -4.399796
v -3.931654 3.816480 -4.401563
v -2.208343 0.000264 2.209333
v -2.209373 7.635680 2.208400
v -1.968285 7.223255 2.449800
v 1.964677 7.224806 2.449809
v 2.200945 0.000292 2.208338
v 1.967365 0.412716 2.449738
v -1.965599 0.411166 2.449743
v 3.932503 3.819539 4.414212
v 4.406359 3.816249 4.416040
v 4.408340 3.819686 4.414059
v -8.335441 0.411167 -1.963931
v -8.335441 0.412717 1.969030
v -8.335441 3.819539 3.934168
v -8.335441 7.224807 1.966343
v -8.335441 7.223256 -1.966619
v -8.335441 3.816436 -3.931755
v -8.335441 0.757291 -1.764278
v -8.335441 0.758684 1.769104
v -8.335441 3.819381 3.534590
v -8.335441 6.878683 1.766690
v -8.335441 6.877289 -1.766693
v -8.335441 3.816594 -3.532177
v -8.744786 0.757291 -1.764278
v -8.744786 0.758684 1.769104
v -8.744786 3.819381 3.534590
v -8.744786 6.878683 1.766690
v -8.744786 6.877289 -1.766693
v -8.744786 3.816594 -3.532177
v -8.744786 0.408020 -1.965747
v -8.744786 0.409571 1.970848
v -8.744786 3.819541 3.937801
v -8.744786 7.227954 1.968157
v -8.744786 7.226402 -1.968437
v -8.744786 3.816435 -3.935389
v -9.181567 0.408020 -1.965747
v -9.181567 0.409571 1.970848
v -9.181567 3.819541 3.937801
v -9.181567 7.227954 1.968157
v -9.181567 7.226402 -1.968437
v -9.181567 3.816435 -3.935389
v -9.181567 0.755406 -1.765366
v -9.181567 0.756799 1.770193
v -9.181567 3.819382 3.536766
v -9.181567 6.880569 1.767777
v -9.181567 6.879174 -1.767782
v -9.181567 3.816593 -3.534353
v -9.640281 0.755406 -1.765366
v -9.640281 0.756799 1.770193
v -9.640281 3.819382 3.536766
v -9.640281 6.880569 1.767777
v -9.640281 6.879174 -1.767782
v -9.640281 3.816593 -3.534353
v -9.640281 0.398964 -1.970970
v -9.640281 0.400519 1.976080
v -9.640281 3.819545 3.948255
v -9.640281 7.237011 1.973382
v -9.640281 7.235453 -1.973668
v -9.640281 3.816431 -3.945845
v -10.244370 0.398964 -1.970970
v -10.244370 0.400519 1.976079
v -10.244370 3.819545 3.948255
v -10.244370 7.237011 1.973382
v -10.244370 7.235453 -1.973668
v -10.244370 3.816431 -3.945845
v -10.244370 -0.001014 -2.201687
v -10.244370 0.000723 2.207111
v -10.244370 3.819727 4.410006
v -10.244370 7.636990 2.204098
v -10.244370 7.635250 -2.204700
v -10.244370 3.816249 -4.407595
v 8.344769 0.411167 1.966347
v 8.344769 0.412716 -1.966615
v 8.344769 3.819539 -3.931752
v 8.344769 7.224806 -1.963926
v 8.344769 7.223255 1.969036
v 8.344769 3.816437 3.934173
v 8.344769 0.757291 1.766695
v 8.344769 0.758683 -1.766688
v 8.344769 3.819381 -3.532173
v 8.344769 6.878683 -1.764274
v 8.344769 6.877288 1.769109
v 8.344769 3.816594 3.534593
v 8.754114 0.757291 1.766695
v 8.754114 0.758683 -1.766688
v 8.754114 3.819381 -3.532173
v 8.754114 6.878683 -1.764274
v 8.754114 6.877288 1.769109
v 8.754114 3.816594 3.534593
v 8.754114 0.408020 1.968163
v 8.754114 0.409570 -1.968432
v 8.754114 3.819540 -3.935385
v 8.754114 7.227954 -1.965741
v 8.754114 7.226401 1.970853
v 8.754114 3.816435 3.937805
v 9.190895 0.408020 1.968163
v 9.190895 0.409570 -1.968432
v 9.190895 3.819541 -3.935385
v 9.190895 7.227954 -1.965741
v 9.190895 7.226402 1.970853
v 9.190895 3.816436 3.937805
v 9.190895 0.755406 1.767782
v 9.190895 0.756798 -1.767777
v 9.190895 3.819382 -3.534350
v 9.190895 6.880569 -1.765361
v 9.190895 6.879174 1.770198
v 9.190895 3.816594 3.536770
v 9.649609 0.755406 1.767782
v 9.649609 0.756798 -1.767777
v 9.649609 3.819382 -3.534350
v 9.649609 6.880569 -1.765361
v 9.649609 6.879174 1.770198
v 9.649609 3.816594 3.536770
v 9.649609 0.398964 1.973387
v 9.649609 0.400519 -1.973663
v 9.649609 3.819545 -3.945840
v 9.649609 7.237011 -1.970965
v 9.649609 7.235453 1.976085
v 9.649609 3.816431 3.948261
v 10.253698 0.398964 1.973387
v 10.253698 0.400519 -1.973664
v 10.253698 3.819545 -3.945840
v 10.253698 7.237011 -1.970965
v 10.253698 7.235453 1.976085
v 10.253698 3.816431 3.948261
v 10.253698 -0.001014 2.204103
v 10.253698 0.000723 -2.204695
v 10.253698 3.819727 -4.407589
v 10.253698 7.636990 -2.201682
v 10.253698 7.635250 2.207117
v 10.253698 3.816249 4.410011
v 2.434530 7.223256 1.969035
v 2.434540 7.224806 -1.963926
v -4.414805 3.816290 -4.407594
v -4.416765 3.819686 -4.405635
v -4.416768 3.816369 3.932341
v -4.414999 3.816436 -3.931757
v -4.416764 3.819496 -3.929992
v 2.434603 0.411167 1.966351
v 2.434596 0.412716 -1.966614
v 4.398851 3.819727 -4.407590
v 4.400835 3.816291 -4.405608
v 4.400831 3.819607 3.932344
v 4.399952 3.818009 -3.930870
v 4.399002 3.816436 3.934173
v -2.450528 7.223255 -1.966619
v -2.450537 7.224806 1.966343
v -2.450465 0.412716 1.969031
v -2.450471 0.411167 -1.963933
v -4.414786 3.819686 4.410007
v -4.414940 3.819539 3.934169
v -4.416768 3.816249 4.408025
vn -0.0004 1.0000 -0.0000
vn -0.8662 0.4997 -0.0000
vn -0.8658 -0.5003 0.0000
vn 0.0004 -1.0000 0.0000
vn 0.8662 -0.4997 -0.0000
vn 0.8658 0.5003 -0.0000
vn 0.0000 0.0000 1.0000
vn 0.8662 -0.4998 -0.0007
vn -0.0002 -1.0000 0.0001
vn -0.8664 0.4994 0.0002
vn 0.8659 0.5003 -0.0009
vn -0.8660 -0.5000 0.0003
vn -0.0002 1.0000 -0.0001
vn 0.0004 1.0000 0.0000
vn 0.8662 0.4997 -0.0000
vn 0.8658 -0.5003 -0.0000
vn -0.0004 -1.0000 0.0000
vn -0.8662 -0.4997 0.0000
vn -0.8659 0.5001 -0.0002
vn -0.8658 0.5003 0.0000
vn 0.0000 0.0000 -1.0000
vn -0.8660 0.5000 -0.0003
vn 0.8660 0.5000 0.0003
vn -0.0007 -0.4978 0.8673
vn -0.0019 0.5033 -0.8641
vn 0.0002 1.0000 0.0001
vn -0.0020 -0.5033 -0.8641
vn -0.5560 0.6320 -0.5398
vn 0.4854 -0.6297 -0.6065
vn 0.8657 -0.5006 0.0002
vn -0.8664 -0.4994 -0.0002
vn -0.0001 0.4976 0.8674
vn 0.0002 -1.0000 -0.0001
vn 0.0000 1.0000 -0.0004
vn 0.0000 0.4997 -0.8662
vn 0.0000 -0.5003 -0.8658
vn -0.0000 -1.0000 0.0004
vn 0.0000 -0.4997 0.8662
vn 0.0000 0.5003 0.8658
vn -1.0000 0.0000 0.0000
vn -0.0005 -0.4996 0.8662
vn -0.0001 -1.0000 -0.0002
vn 0.0002 0.4999 -0.8661
vn -0.0002 0.5001 0.8660
vn 0.0002 -0.5005 -0.8657
vn 0.0001 1.0000 -0.0002
vn 0.0000 1.0000 0.0004
vn 0.0000 0.4997 0.8662
vn 0.0002 -0.5001 0.8659
vn -0.0000 -1.0000 -0.0004
vn 0.0000 -0.4997 -0.8662
vn -0.0000 0.5003 -0.8658
vn 0.0000 -0.5003 0.8658
vn 1.0000 0.0000 0.0000
vn -0.0002 0.5005 -0.8657
vn 0.0002 0.4995 0.8663
vn -0.8675 -0.4974 -0.0012
vn 0.8637 0.5039 -0.0024
vn -0.0001 1.0000 0.0002
vn 0.8642 -0.5031 -0.0001
vn -0.6250 -0.0869 0.7758
vn -0.6249 -0.0869 0.7758
vn 0.0002 -0.5001 0.8660
vn -0.0002 -0.4999 -0.8661
vn -0.8679 0.4968 -0.0006
vn 0.0001 -1.0000 0.0002
vn 0.5472 -0.6324 -0.5483
vn -0.5469 -0.6321 0.5490
vn -0.5543 -0.6322 -0.5413
vn 0.5388 -0.6322 0.5568
vn 0.5413 0.6322 0.5543
vn -0.5484 0.6323 0.5473
vn -0.5489 -0.6323 0.5467
vn 0.0000 -1.0000 -0.0000
vn 0.0000 1.0000 0.0000
usemtl corridor_glass
s off
f 3//1 4//1 147//1 148//1
f 4//2 5//2 149//2 130//2 147//2
f 5//3 6//3 145//3 149//3
f 6//4 7//4 144//4 145//4
f 7//5 8//5 131//5 132//5 144//5
f 8//6 3//6 148//6 131//6
f 25//5 31//5 32//5 26//5
f 23//3 29//3 30//3 24//3
f 21//1 27//1 28//1 22//1
f 26//6 32//6 27//6 21//6
f 24//4 30//4 31//4 25//4
f 22//2 28//2 29//2 23//2
f 47//3 53//3 54//3 48//3
f 45//1 51//1 52//1 46//1
f 50//6 56//6 51//6 45//6
f 48//4 54//4 55//4 49//4
f 46//2 52//2 53//2 47//2
f 49//5 55//5 56//5 50//5
f 52//7 58//7 59//7 53//7
f 55//7 61//7 62//7 56//7
f 53//7 59//7 60//7 54//7
f 51//7 57//7 58//7 52//7
f 56//7 62//7 57//7 51//7
f 54//7 60//7 61//7 55//7
f 59//8 58//8 146//8 2//8 150//8 151//8
f 136//9 118//9 117//9 135//9
f 62//10 61//10 143//10 129//10 128//10
f 60//11 59//11 151//11 2//11 124//11
f 57//12 62//12 128//12 142//12
f 143//13 61//13 60//13 124//13
f 63//14 64//14 134//14 133//14
f 64//15 65//15 140//15 141//15 134//15
f 65//16 66//16 126//16 140//16
f 66//17 67//17 125//17 126//17
f 67//18 68//18 139//18 125//18
f 68//19 63//19 133//19 139//19
f 85//18 91//18 92//18 86//18
f 83//16 89//16 90//16 84//16
f 81//14 87//14 88//14 82//14
f 86//20 92//20 87//20 81//20
f 84//17 90//17 91//17 85//17
f 82//15 88//15 89//15 83//15
f 107//16 113//16 114//16 108//16
f 105//14 111//14 112//14 106//14
f 110//20 116//20 111//20 105//20
f 108//17 114//17 115//17 109//17
f 106//15 112//15 113//15 107//15
f 109//18 115//18 116//18 110//18
f 112//21 118//21 119//21 113//21
f 115//21 121//21 122//21 116//21
f 113//21 119//21 120//21 114//21
f 111//21 117//21 118//21 112//21
f 116//21 122//21 117//21 111//21
f 114//21 120//21 121//21 115//21
f 120//22 119//22 137//22 123//22
f 121//23 127//23 1//23 122//23
f 123//24 137//24 138//24 141//24 140//24 126//24 125//24 139//24 1//24 127//24
f 142//25 128//25 129//25 132//25 131//25 148//25 147//25 130//25 2//25 146//25
f 127//26 121//26 120//26 123//26
f 129//27 143//27 124//27 2//27 130//27 149//27 145//27 144//27 132//27
f 147//28 149//28 283//28 279//28
f 2//29 151//29 150//29
f 122//30 1//30 135//30 117//30
f 136//31 138//31 137//31 119//31 118//31
f 138//32 136//32 135//32 1//32 139//32 133//32 134//32 141//32
f 146//33 58//33 57//33 142//33
f 152//34 153//34 288//34 289//34
f 153//35 154//35 291//35 276//35 288//35
f 154//36 155//36 287//36 291//36
f 155//37 156//37 286//37 287//37
f 156//38 157//38 277//38 278//38 286//38
f 157//39 152//39 289//39 277//39
f 174//38 180//38 181//38 175//38
f 172//36 178//36 179//36 173//36
f 170//34 176//34 177//34 171//34
f 175//39 181//39 176//39 170//39
f 173//37 179//37 180//37 174//37
f 171//35 177//35 178//35 172//35
f 196//36 202//36 203//36 197//36
f 194//34 200//34 201//34 195//34
f 199//39 205//39 200//39 194//39
f 197//37 203//37 204//37 198//37
f 195//35 201//35 202//35 196//35
f 198//38 204//38 205//38 199//38
f 201//40 207//40 208//40 202//40
f 204//40 210//40 211//40 205//40
f 202//40 208//40 209//40 203//40
f 200//40 206//40 207//40 201//40
f 205//40 211//40 206//40 200//40
f 203//40 209//40 210//40 204//40
f 208//41 207//41 142//41 128//41 292//41 290//41
f 135//42 267//42 266//42 146//42
f 211//43 210//43 123//43 275//43 274//43
f 209//44 208//44 290//44 143//44
f 206//45 211//45 274//45 136//45
f 123//46 210//46 209//46 143//46
f 212//47 213//47 280//47 279//47
f 213//48 214//48 284//48 280//48
f 214//49 215//49 273//49 284//49
f 215//50 216//50 272//50 273//50
f 216//51 217//51 285//51 283//51 272//51
f 217//52 212//52 279//52 285//52
f 234//51 240//51 241//51 235//51
f 232//53 238//53 239//53 233//53
f 230//47 236//47 237//47 231//47
f 235//52 241//52 236//52 230//52
f 233//50 239//50 240//50 234//50
f 231//48 237//48 238//48 232//48
f 256//53 262//53 263//53 257//53
f 254//47 260//47 261//47 255//47
f 259//52 265//52 260//52 254//52
f 257//50 263//50 264//50 258//50
f 255//48 261//48 262//48 256//48
f 258//51 264//51 265//51 259//51
f 261//54 267//54 268//54 262//54
f 264//54 270//54 271//54 265//54
f 262//54 268//54 269//54 263//54
f 260//54 266//54 267//54 261//54
f 265//54 271//54 266//54 260//54
f 263//54 269//54 270//54 264//54
f 269//55 268//55 281//55 127//55
f 270//56 124//56 2//56 271//56
f 127//57 281//57 282//57 284//57 273//57 272//57 283//57 2//57 124//57
f 136//58 274//58 275//58 278//58 277//58 289//58 288//58 276//58 129//58 128//58 142//58
f 124//59 270//59 269//59 127//59
f 275//60 123//60 143//60 290//60 129//60 276//60 291//60 287//60 286//60 278//60
f 292//61 128//61 129//61
f 290//62 292//62 129//62
f 271//63 2//63 146//63 266//63
f 135//64 282//64 281//64 268//64 267//64
f 282//65 135//65 146//65 2//65 283//65 285//65 279//65 280//65 284//65
f 142//66 207//66 206//66 136//66
f 144//67 132//67 291//67 287//67
f 288//68 148//68 132//68 291//68
f 130//69 145//69 272//69 283//69
f 286//70 278//70 141//70 126//70
f 134//71 141//71 278//71 289//71
f 280//72 284//72 139//72 133//72
f 125//73 139//73 284//73 273//73
f 273//74 272//74 145//74 144//74 287//74 286//74 126//74 125//74
f 143//75 124//75 127//75 123//75
f 133//75 134//75 289//75 288//75 148//75 147//75 279//75 280//75
f 136//74 135//74 146//74 142//74
usemtl metal_door
f 7//21 13//21 14//21 8//21
f 4//21 10//21 11//21 5//21
f 3//21 9//21 10//21 4//21
f 5//21 11//21 12//21 6//21
f 8//21 14//21 9//21 3//21
f 6//21 12//21 13//21 7//21
f 13//5 19//5 20//5 14//5
f 11//3 17//3 18//3 12//3
f 9//1 15//1 16//1 10//1
f 14//6 20//6 15//6 9//6
f 12//4 18//4 19//4 13//4
f 10//2 16//2 17//2 11//2
f 20//7 26//7 21//7 15//7
f 18//7 24//7 25//7 19//7
f 16//7 22//7 23//7 17//7
f 19//7 25//7 26//7 20//7
f 17//7 23//7 24//7 18//7
f 15//7 21//7 22//7 16//7
f 32//21 38//21 33//21 27//21
f 30//21 36//21 37//21 31//21
f 28//21 34//21 35//21 29//21
f 31//21 37//21 38//21 32//21
f 29//21 35//21 36//21 30//21
f 27//21 33//21 34//21 28//21
f 37//5 43//5 44//5 38//5
f 35//3 41//3 42//3 36//3
f 33//1 39//1 40//1 34//1
f 38//6 44//6 39//6 33//6
f 36//4 42//4 43//4 37//4
f 34//2 40//2 41//2 35//2
f 42//7 48//7 49//7 43//7
f 40//7 46//7 47//7 41//7
f 43//7 49//7 50//7 44//7
f 41//7 47//7 48//7 42//7
f 39//7 45//7 46//7 40//7
f 44//7 50//7 45//7 39//7
f 67//7 73//7 74//7 68//7
f 64//7 70//7 71//7 65//7
f 63//7 69//7 70//7 64//7
f 65//7 71//7 72//7 66//7
f 68//7 74//7 69//7 63//7
f 66//7 72//7 73//7 67//7
f 73//18 79//18 80//18 74//18
f 71//16 77//16 78//16 72//16
f 69//14 75//14 76//14 70//14
f 74//20 80//20 75//20 69//20
f 72//17 78//17 79//17 73//17
f 70//15 76//15 77//15 71//15
f 80//21 86//21 81//21 75//21
f 78//21 84//21 85//21 79//21
f 76//21 82//21 83//21 77//21
f 79//21 85//21 86//21 80//21
f 77//21 83//21 84//21 78//21
f 75//21 81//21 82//21 76//21
f 92//7 98//7 93//7 87//7
f 90//7 96//7 97//7 91//7
f 88//7 94//7 95//7 89//7
f 91//7 97//7 98//7 92//7
f 89//7 95//7 96//7 90//7
f 87//7 93//7 94//7 88//7
f 97//18 103//18 104//18 98//18
f 95//16 101//16 102//16 96//16
f 93//14 99//14 100//14 94//14
f 98//20 104//20 99//20 93//20
f 96//17 102//17 103//17 97//17
f 94//15 100//15 101//15 95//15
f 102//21 108//21 109//21 103//21
f 100//21 106//21 107//21 101//21
f 103//21 109//21 110//21 104//21
f 101//21 107//21 108//21 102//21
f 99//21 105//21 106//21 100//21
f 104//21 110//21 105//21 99//21
f 156//54 162//54 163//54 157//54
f 153//54 159//54 160//54 154//54
f 152//54 158//54 159//54 153//54
f 154//54 160//54 161//54 155//54
f 157//54 163//54 158//54 152//54
f 155//54 161//54 162//54 156//54
f 162//38 168//38 169//38 163//38
f 160//36 166//36 167//36 161//36
f 158//34 164//34 165//34 159//34
f 163//39 169//39 164//39 158//39
f 161//37 167//37 168//37 162//37
f 159//35 165//35 166//35 160//35
f 169//40 175//40 170//40 164//40
f 167//40 173//40 174//40 168//40
f 165//40 171//40 172//40 166//40
f 168//40 174//40 175//40 169//40
f 166//40 172//40 173//40 167//40
f 164//40 170//40 171//40 165//40
f 181//54 187//54 182//54 176//54
f 179//54 185//54 186//54 180//54
f 177//54 183//54 184//54 178//54
f 180//54 186//54 187//54 181//54
f 178//54 184//54 185//54 179//54
f 176//54 182//54 183//54 177//54
f 186//38 192//38 193//38 187//38
f 184//36 190//36 191//36 185//36
f 182//34 188//34 189//34 183//34
f 187//39 193//39 188//39 182//39
f 185//37 191//37 192//37 186//37
f 183//35 189//35 190//35 184//35
f 191//40 197//40 198//40 192//40
f 189//40 195//40 196//40 190//40
f 192//40 198//40 199//40 193//40
f 190//40 196//40 197//40 191//40
f 188//40 194//40 195//40 189//40
f 193//40 199//40 194//40 188//40
f 216//40 222//40 223//40 217//40
f 213//40 219//40 220//40 214//40
f 212//40 218//40 219//40 213//40
f 214//40 220//40 221//40 215//40
f 217//40 223//40 218//40 212//40
f 215//40 221//40 222//40 216//40
f 222//51 228//51 229//51 223//51
f 220//53 226//53 227//53 221//53
f 218//47 224//47 225//47 219//47
f 223//52 229//52 224//52 218//52
f 221//50 227//50 228//50 222//50
f 219//48 225//48 226//48 220//48
f 229//54 235//54 230//54 224//54
f 227//54 233//54 234//54 228//54
f 225//54 231//54 232//54 226//54
f 228//54 234//54 235//54 229//54
f 226//54 232//54 233//54 227//54
f 224//54 230//54 231//54 225//54
f 241//40 247//40 242//40 236//40
f 239//40 245//40 246//40 240//40
f 237//40 243//40 244//40 238//40
f 240//40 246//40 247//40 241//40
f 238//40 244//40 245//40 239//40
f 236//40 242//40 243//40 237//40
f 246//51 252//51 253//51 247//51
f 244//53 250//53 251//53 245//53
f 242//47 248//47 249//47 243//47
f 247//52 253//52 248//52 242//52
f 245//50 251//50 252//50 246//50
f 243//48 249//48 250//48 244//48
f 251//54 257//54 258//54 252//54
f 249//54 255//54 256//54 250//54
f 252//54 258//54 259//54 253//54
f 250//54 256//54 257//54 251//54
f 248//54 254//54 255//54 249//54
f 253//54 259//54 254//54 248//54
