# Blender v3.0.1 OBJ File: 'EstructurasEscenablend.blend'
# www.blender.org
mtllib Puerta.mtl
o Puerta_Cube.003
v -1.772024 6.897015 -0.236853
v -1.772024 6.897015 0.236856
v 1.776875 6.895615 -0.236853
v 1.776875 6.895615 0.236856
v -1.774450 0.750139 0.236856
v -1.774450 0.750139 -0.236853
v 3.550115 3.821478 0.236856
v 3.550114 3.821478 -0.236853
v -3.547687 3.824278 -0.236853
v -3.547687 3.824278 0.236856
v 1.774452 0.748741 0.236856
v 1.774452 0.748741 -0.236853
v -1.328681 6.128422 -0.188657
v -1.328681 6.128422 0.188660
v 1.332926 6.127372 -0.188657
v 1.332926 6.127372 0.188660
v -1.330500 1.518382 0.188660
v -1.330500 1.518382 -0.188657
v 2.662822 3.821828 0.188660
v 2.662822 3.821828 -0.188657
v -2.660394 3.823928 -0.188657
v -2.660394 3.823928 0.188660
v 1.331108 1.517334 0.188660
v 1.331108 1.517334 -0.188657
v -2.660394 3.823928 -0.099071
v 2.662822 3.821828 -0.099071
v 1.331108 1.517334 -0.099071
v -1.330500 1.518382 -0.099071
v -1.328681 6.128422 -0.099071
v 1.332926 6.127372 -0.099071
v 2.662822 3.821828 -0.099071
v -2.660394 3.823928 -0.099071
v 2.662822 3.821828 0.091795
v -2.660394 3.823928 0.091795
v -1.330500 1.518382 0.091795
v 1.331108 1.517334 0.091795
v -2.660394 3.823928 0.091795
v 2.662822 3.821828 0.091795
v 1.332926 6.127372 0.091795
v -1.328681 6.128422 0.091795
v 2.359578 3.821948 -0.339915
v -2.357151 3.823808 -0.339915
v 1.179590 1.780010 -0.339915
v -1.178775 1.780939 -0.339915
v 1.181201 5.864815 -0.339915
v -1.177163 5.865746 -0.339915
v 2.359578 3.821948 -0.339915
v -2.357151 3.823808 -0.339915
v -2.357151 3.823808 0.332640
v 2.359578 3.821948 0.332640
v -1.178775 1.780939 0.332640
v 1.179590 1.780010 0.332640
v 2.359578 3.821948 0.332640
v -2.357151 3.823808 0.332640
v 1.181201 5.864815 0.332640
v -1.177163 5.865746 0.332640
vn -0.8662 -0.4997 0.0000
vn 0.8658 -0.5003 -0.0000
vn 0.8662 0.4997 -0.0000
vn -0.8658 0.5003 0.0000
vn -0.0004 -1.0000 0.0000
vn 0.0004 1.0000 0.0000
vn -0.0000 -0.0626 0.9980
vn 0.0000 0.0626 -0.9980
vn 0.0542 -0.0313 -0.9980
vn 0.0542 0.0313 -0.9980
vn -0.0542 -0.0313 -0.9980
vn -0.0542 0.0313 0.9980
vn 0.0542 -0.0313 0.9980
vn 0.0542 0.0313 0.9980
vn -0.0542 0.0313 -0.9980
vn -0.0000 -0.0626 -0.9980
vn 0.0000 0.0626 0.9980
vn -0.0542 -0.0313 0.9980
vn 0.5852 -0.3382 -0.7370
vn 0.0003 0.6759 -0.7370
vn -0.0000 0.0000 -1.0000
vn -0.0000 0.0000 1.0000
vn 0.5855 0.3377 -0.7370
vn -0.0003 -0.6759 -0.7370
vn -0.5855 -0.3377 0.7370
vn 0.5855 0.3377 0.7370
vn -0.5855 -0.3377 -0.7370
vn -0.0003 -0.6759 0.7370
vn -0.5852 0.3382 -0.7370
vn 0.0003 0.6759 0.7370
vn 0.5852 -0.3382 0.7370
vn -0.5852 0.3382 0.7370
usemtl door
s off
f 20//1 19//1 16//1 15//1
f 12//2 8//2 7//2 11//2
f 8//3 3//3 4//3 7//3
f 24//4 23//4 19//4 20//4
f 1//4 9//4 10//4 2//4
f 6//5 12//5 11//5 5//5
f 9//1 6//1 5//1 10//1
f 3//6 1//6 2//6 4//6
f 13//2 14//2 22//2 21//2
f 18//6 17//6 23//6 24//6
f 21//3 22//3 17//3 18//3
f 15//5 16//5 14//5 13//5
f 4//7 2//7 14//7 16//7
f 12//8 6//8 18//8 24//8
f 9//9 1//9 13//9 21//9
f 6//10 9//10 21//10 18//10
f 3//11 8//11 20//11 15//11
f 11//12 7//12 19//12 23//12
f 2//13 10//13 22//13 14//13
f 10//14 5//14 17//14 22//14
f 8//15 12//15 24//15 20//15
f 1//16 3//16 15//16 13//16
f 5//17 11//17 23//17 17//17
f 7//18 4//18 16//18 19//18
f 33//6 34//6 49//6 50//6
f 24//4 27//4 26//4 20//4
f 18//6 28//6 27//6 24//6
f 21//3 25//3 28//3 18//3
f 26//19 27//19 43//19 41//19
f 15//5 30//5 29//5 13//5
f 20//1 31//1 30//1 15//1
f 13//2 29//2 32//2 21//2
f 29//20 30//20 45//20 46//20
f 17//3 35//3 34//3 22//3
f 23//6 36//6 35//6 17//6
f 19//4 33//4 36//4 23//4
f 25//6 26//6 41//6 42//6
f 16//1 39//1 38//1 19//1
f 14//5 40//5 39//5 16//5
f 22//2 37//2 40//2 14//2
f 42//21 41//21 43//21 44//21
f 46//21 45//21 47//21 48//21
f 50//22 49//22 51//22 52//22
f 54//22 53//22 55//22 56//22
f 30//23 31//23 47//23 45//23
f 37//5 38//5 53//5 54//5
f 27//24 28//24 44//24 43//24
f 34//25 35//25 51//25 49//25
f 31//5 32//5 48//5 47//5
f 38//26 39//26 55//26 53//26
f 28//27 25//27 42//27 44//27
f 35//28 36//28 52//28 51//28
f 32//29 29//29 46//29 48//29
f 39//30 40//30 56//30 55//30
f 36//31 33//31 50//31 52//31
f 40//32 37//32 54//32 56//32
