# Blender v3.0.1 OBJ File: 'EstructurasEscenablend.blend'
# www.blender.org
mtllib Wall1.mtl
o Wall1_Cube.001
v 0.003021 0.000000 0.213634
v 0.003021 9.217045 0.213634
v 0.003021 0.000000 -0.213634
v 0.003021 9.217045 -0.213634
v 11.353371 0.000000 0.213634
v 11.353371 9.217045 0.213634
v 11.353371 0.000000 -0.213634
v 11.353371 9.217045 -0.213634
v -0.003025 0.000000 -0.213633
v -0.003025 9.217045 -0.213633
v -0.003025 0.000000 0.213634
v -0.003025 9.217045 0.213634
v -11.353374 0.000000 -0.213634
v -11.353374 9.217045 -0.213634
v -11.353374 0.000000 0.213633
v -11.353374 9.217045 0.213633
vt 0.075498 0.076335
vt 0.075497 0.888246
vt 0.037860 0.888246
vt 0.037860 0.076335
vt 0.999910 0.000090
vt 0.999910 0.987775
vt 0.000090 0.987775
vt 0.000090 0.000090
vt 0.037712 0.076335
vt 0.037712 0.888246
vt 0.000075 0.888246
vt 0.000074 0.076335
vt 0.999910 0.000090
vt 0.999910 0.991681
vt 0.000090 0.991681
vt 0.000090 0.000090
vt 0.000087 0.038204
vt 0.999926 0.038549
vt 0.999913 0.076187
vt 0.000074 0.075841
vt 0.999913 0.038057
vt 0.000074 0.037711
vt 0.000087 0.000074
vt 0.999926 0.000420
vt 0.075498 0.076335
vt 0.075497 0.888246
vt 0.037860 0.888246
vt 0.037860 0.076335
vt 0.999910 0.000090
vt 0.999910 0.987775
vt 0.000090 0.987775
vt 0.000090 0.000090
vt 0.037712 0.076335
vt 0.037712 0.888246
vt 0.000075 0.888246
vt 0.000074 0.076335
vt 0.999910 0.000090
vt 0.999910 0.991681
vt 0.000090 0.991681
vt 0.000090 0.000090
vt 0.000087 0.038204
vt 0.999926 0.038549
vt 0.999913 0.076187
vt 0.000074 0.075841
vt 0.999913 0.038057
vt 0.000074 0.037711
vt 0.000087 0.000074
vt 0.999926 0.000420
vn -1.0000 0.0000 0.0000
vn 0.0000 0.0000 -1.0000
vn 1.0000 0.0000 0.0000
vn 0.0000 0.0000 1.0000
vn 0.0000 -1.0000 0.0000
vn 0.0000 1.0000 0.0000
usemtl wall_lab
s off
f 1/1/1 2/2/1 4/3/1 3/4/1
f 3/5/2 4/6/2 8/7/2 7/8/2
f 7/9/3 8/10/3 6/11/3 5/12/3
f 5/13/4 6/14/4 2/15/4 1/16/4
f 3/17/5 7/18/5 5/19/5 1/20/5
f 8/21/6 4/22/6 2/23/6 6/24/6
usemtl wall_lab2
f 9/25/3 10/26/3 12/27/3 11/28/3
f 11/29/4 12/30/4 16/31/4 15/32/4
f 15/33/1 16/34/1 14/35/1 13/36/1
f 13/37/2 14/38/2 10/39/2 9/40/2
f 11/41/5 15/42/5 13/43/5 9/44/5
f 16/45/6 12/46/6 10/47/6 14/48/6
