# Aspose.3D Wavefront OBJ Exporter
# Copyright 2004-2022 Aspose Pty Ltd.
# File created: 05/24/2022 18:03:23

mtllib material.lib

#
# object Cube
#

v -99.30777549743652344 -359.22418172884431444 409.24568150152350656
v -99.30777549743652344 351.6146430893481352 409.24556569117908112
v -99.30777549743652344 -359.22430553663798492 -350.68113734612273904
v -99.30777549743652344 351.61451928155435096 -350.68125315646716448
v 100.69222450256347656 -359.22418172884431444 409.24568150152350656
v 100.69222450256347656 351.6146430893481352 409.24556569117908112
v 100.69222450256347656 -359.22430553663798492 -350.68113734612273904
v 100.69222450256347656 351.61451928155435096 -350.68125315646716448
# 8 vertices

vn -1 0 0
vn -1 0 0
vn -1 0 0
vn -1 0 0
vn 0 -1.6292067939183141E-07 -0.99999999999998656
vn 0 -1.6292067939183141E-07 -0.99999999999998656
vn 0 -1.6292067939183141E-07 -0.99999999999998656
vn 0 -1.6292067939183141E-07 -0.99999999999998656
vn 1 0 0
vn 1 0 0
vn 1 0 0
vn 1 0 0
vn 0 1.6292067939183141E-07 0.99999999999998656
vn 0 1.6292067939183141E-07 0.99999999999998656
vn 0 1.6292067939183141E-07 0.99999999999998656
vn 0 1.6292067939183141E-07 0.99999999999998656
vn 0 -0.99999999999998656 1.6292067939183141E-07
vn 0 -0.99999999999998656 1.6292067939183141E-07
vn 0 -0.99999999999998656 1.6292067939183141E-07
vn 0 -0.99999999999998656 1.6292067939183141E-07
vn 0 0.99999999999998656 -1.6292067939183141E-07
vn 0 0.99999999999998656 -1.6292067939183141E-07
vn 0 0.99999999999998656 -1.6292067939183141E-07
vn 0 0.99999999999998656 -1.6292067939183141E-07
# 24 vertex normals

vt 0.66646683216094968 0.33313354849815368 0
vt 0.00019976028124801815 0.99979996681213376 0
vt 0.00019978942873422056 0.6668663024902344 0
vt 0.33313354849815368 0.6668663024902344 0
vt 0.33313351869583128 0.99980008602142336 0
vt 0.99980020523071296 0.00019978013006038964 0
vt 0.99980014562606816 0.33313351869583128 0
vt 0.33313354849815368 0.33353304862976076 0
vt 0.66686648130416872 0.33313351869583128 0
vt 0.66686648130416872 0.00019976028124801815 0
vt 0.00019976028124801815 0.33313351869583128 0
vt 0.0001997999643208459 0.00019976028124801815 0
vt 0.33313351869583128 0.33313351869583128 0
vt 0.66646689176559448 0.33353304862976076 0
vt 0.33313357830047608 0.00019976028124801815 0
vt 0.66646683216094968 0.66646683216094968 0
vt 0.33353313803672792 0.33353301882743836 0
vt 0.33353310823440552 0.66646683216094968 0
vt 0.33353310823440552 0.33313351869583128 0
vt 0.33353313803672792 0.00019976028124801815 0
vt 0.00019978942873422056 0.33353301882743836 0
vt 0.66646689176559448 0.0001997999643208459 0
vt 0.33313351869583128 0.66646683216094968 0
vt 0.00019976028124801815 0.66646683216094968 0
# 24 texture coords

g Cube
usemtl Material.001
s 1
f 1/13/1 2/15/2 4/12/3 3/11/4
f 3/16/5 4/14/6 8/17/7 7/18/8
f 7/19/9 8/20/10 6/22/11 5/1/12
f 5/2/13 6/3/14 2/4/15 1/5/16
f 3/6/17 7/10/18 5/9/19 1/7/20
f 8/21/21 4/8/22 2/23/23 6/24/24
#6 polygons

