# Aspose.3D Wavefront OBJ Exporter
# Copyright 2004-2022 Aspose Pty Ltd.
# File created: 05/24/2022 09:01:31

mtllib material.lib

#
# object root
#

v -0.08361229486763477 0.20871526551094544 0.25001173434035584
v -0.07186485056992753 0.22970193202539236 0.25001173434035584
v -0.08361229486763477 0.23055913945856332 0.25001173434035584
v 0.01382814892807626 0.2330673737451434 0.25001173434035584
v -0.05170368562534655 0.2313846791220282 0.25001173434035584
v 0.08774196386369626 0.23055913945856332 0.25001173434035584
v 0.07180351554350439 0.2330673737451434 0.25001173434035584
v 0.10202942602336406 0.2112234735607652 0.25001173434035584
v 0.10120392464427042 0.2313846791220282 0.25001173434035584
v 0.09361566664860944 -0.20711242128163576 0.25001173434035584
v 0.10034667193539138 -0.20628693409169152 0.25001173434035584
v 0.07180351554350439 -0.20542966106661976 0.25001173434035584
v -0.00550755336529196 -0.20711242128163576 0.25001173434035584
v 0.03481483738196855 -0.20628693409169152 0.25001173434035584
v -0.04160721642305454 -0.20542966106661976 0.25001173434035584
v -0.07523034214820967 -0.20292142678003964 0.25001173434035584
v -0.06681662150133594 -0.20460413452153504 0.25001173434035584
v -0.08192956290987974 -0.20628693409169152 0.25001173434035584
v -0.08361229486763477 0.23055913945856332 0.15001172604782776
v -0.07186485056992753 0.22970193202539236 0.15001172604782776
v -0.08361229486763477 0.20871526551094544 0.15001172604782776
v -0.05170368562534655 0.2313846791220282 0.15001172604782776
v 0.01382814892807626 0.2330673737451434 0.15001172604782776
v 0.07180351554350439 0.2330673737451434 0.15001172604782776
v 0.08774196386369626 0.23055913945856332 0.15001172604782776
v 0.10120392464427042 0.2313846791220282 0.15001172604782776
v 0.10202942602336406 0.2112234735607652 0.15001172604782776
v 0.10034667193539138 -0.20628693409169152 0.15001172604782776
v 0.09361566664860944 -0.20711242128163576 0.15001172604782776
v 0.03481483738196855 -0.20628693409169152 0.15001172604782776
v -0.00550755336529196 -0.20711242128163576 0.15001172604782776
v 0.07180351554350439 -0.20542966106661976 0.15001172604782776
v -0.04160721642305454 -0.20542966106661976 0.15001172604782776
v -0.06681662150133594 -0.20460413452153504 0.15001172604782776
v -0.07523034214820967 -0.20292142678003964 0.15001172604782776
v -0.08192956290987974 -0.20628693409169152 0.15001172604782776
v -0.08361229486763477 0.23055913945856332 0.25001173434035584
v -0.07186485056992753 0.22970193202539236 0.15001172604782776
v -0.08361229486763477 0.23055913945856332 0.15001172604782776
v -0.07186485056992753 0.22970193202539236 0.25001173434035584
v -0.05170368562534655 0.2313846791220282 0.15001172604782776
v -0.05170368562534655 0.2313846791220282 0.25001173434035584
v 0.01382814892807626 0.2330673737451434 0.15001172604782776
v 0.01382814892807626 0.2330673737451434 0.25001173434035584
v 0.07180351554350439 0.2330673737451434 0.15001172604782776
v 0.07180351554350439 0.2330673737451434 0.25001173434035584
v 0.08774196386369626 0.23055913945856332 0.15001172604782776
v 0.08774196386369626 0.23055913945856332 0.25001173434035584
v 0.10120392464427042 0.2313846791220282 0.15001172604782776
v 0.10120392464427042 0.2313846791220282 0.25001173434035584
v 0.10120392464427042 0.2313846791220282 0.25001173434035584
v 0.10202942602336406 0.2112234735607652 0.15001172604782776
v 0.10120392464427042 0.2313846791220282 0.15001172604782776
v 0.10202942602336406 0.2112234735607652 0.25001173434035584
v 0.10034667193539138 -0.20628693409169152 0.15001172604782776
v 0.10034667193539138 -0.20628693409169152 0.25001173434035584
v 0.10034667193539138 -0.20628693409169152 0.25001173434035584
v 0.09361566664860944 -0.20711242128163576 0.15001172604782776
v 0.10034667193539138 -0.20628693409169152 0.15001172604782776
v 0.09361566664860944 -0.20711242128163576 0.25001173434035584
v 0.07180351554350439 -0.20542966106661976 0.15001172604782776
v 0.07180351554350439 -0.20542966106661976 0.25001173434035584
v 0.03481483738196855 -0.20628693409169152 0.15001172604782776
v 0.03481483738196855 -0.20628693409169152 0.25001173434035584
v -0.00550755336529196 -0.20711242128163576 0.15001172604782776
v -0.00550755336529196 -0.20711242128163576 0.25001173434035584
v -0.04160721642305454 -0.20542966106661976 0.15001172604782776
v -0.04160721642305454 -0.20542966106661976 0.25001173434035584
v -0.06681662150133594 -0.20460413452153504 0.15001172604782776
v -0.06681662150133594 -0.20460413452153504 0.25001173434035584
v -0.07523034214820967 -0.20292142678003964 0.15001172604782776
v -0.07523034214820967 -0.20292142678003964 0.25001173434035584
v -0.08192956290987974 -0.20628693409169152 0.15001172604782776
v -0.08192956290987974 -0.20628693409169152 0.25001173434035584
v -0.08192956290987974 -0.20628693409169152 0.25001173434035584
v -0.08361229486763477 0.20871526551094544 0.15001172604782776
v -0.08192956290987974 -0.20628693409169152 0.15001172604782776
v -0.08361229486763477 0.20871526551094544 0.25001173434035584
v -0.08361229486763477 0.23055913945856332 0.15001172604782776
v -0.08361229486763477 0.23055913945856332 0.25001173434035584
# 80 vertices

vn 0 0 220.0898895263671875
vn 0 0 220.0898895263671875
vn 0 0 220.0898895263671875
vn 0 0 220.0898895263671875
vn 0 0 220.0898895263671875
vn 0 0 220.0898895263671875
vn 0 0 220.0898895263671875
vn 0 0 220.0898895263671875
vn 0 0 220.0898895263671875
vn 0 0 220.0898895263671875
vn 0 0 220.0898895263671875
vn 0 0 220.0898895263671875
vn 0 0 220.0898895263671875
vn 0 0 220.0898895263671875
vn 0 0 220.0898895263671875
vn 0 0 220.0898895263671875
vn 0 0 220.0898895263671875
vn 0 0 220.0898895263671875
vn 0 0 -220.0898895263671875
vn 0 0 -220.0898895263671875
vn 0 0 -220.0898895263671875
vn 0 0 -220.0898895263671875
vn 0 0 -220.0898895263671875
vn 0 0 -220.0898895263671875
vn 0 0 -220.0898895263671875
vn 0 0 -220.0898895263671875
vn 0 0 -220.0898895263671875
vn 0 0 -220.0898895263671875
vn 0 0 -220.0898895263671875
vn 0 0 -220.0898895263671875
vn 0 0 -220.0898895263671875
vn 0 0 -220.0898895263671875
vn 0 0 -220.0898895263671875
vn 0 0 -220.0898895263671875
vn 0 0 -220.0898895263671875
vn 0 0 -220.0898895263671875
vn 13.5103130340576172 439.0125732421875 0
vn -0.96818280220031744 440.17376708984375 0
vn 13.5103130340576172 439.0125732421875 0
vn -0.96818280220031744 440.17376708984375 0
vn -10.10722637176513672 439.52691650390625 0
vn -10.10722637176513672 439.52691650390625 0
vn -2.3828396797180176 440.143524169921875 0
vn -2.3828396797180176 440.143524169921875 0
vn 14.47372817993164064 438.83990478515624992 0
vn 14.47372817993164064 438.83990478515624992 0
vn 8.80017566680908208 439.6849365234375 0
vn 8.80017566680908208 439.6849365234375 0
vn -11.36280536651611328 439.354461669921875 0
vn -11.36280536651611328 439.354461669921875 0
vn 185.48629760742187504 18.00808143615722656 0
vn 185.61012268066406248 8.11903762817382812 0
vn 185.48629760742187504 18.00808143615722656 0
vn 185.61012268066406248 8.11903762817382812 0
vn 185.64019775390625 -1.7741079330444336 0
vn 185.64019775390625 -1.7741079330444336 0
vn 22.59807014465332032 -436.90631103515624992 0
vn 4.17996025085449218 -440.06817626953125 0
vn 22.59807014465332032 -436.90631103515624992 0
vn 4.17996025085449218 -440.06817626953125 0
vn -4.99532985687255856 -440.0203857421875 0
vn -4.99532985687255856 -440.0203857421875 0
vn 4.05056953430175781 -440.074981689453125 0
vn 4.05056953430175781 -440.074981689453125 0
vn -2.42359399795532224 -440.14227294921875 0
vn -2.42359399795532224 -440.14227294921875 0
vn -7.360257625579834 -439.83367919921875008 0
vn -7.360257625579834 -439.83367919921875008 0
vn -21.31346130371093752 -437.26910400390625 0
vn -21.31346130371093752 -437.26910400390625 0
vn 24.8156814575195312 -436.229248046875 0
vn 24.8156814575195312 -436.229248046875 0
vn 83.33631134033203124 -393.33465576171875 0
vn 83.33631134033203124 -393.33465576171875 0
vn -185.64019775390625 -1.78480613231658928 0
vn -185.64132690429687504 -0.89240491390228272 0
vn -185.64019775390625 -1.78480613231658928 0
vn -185.64132690429687504 -0.89240491390228272 0
vn -185.64170837402343752 0 0
vn -185.64170837402343752 0 0
# 80 vertex normals

vt 0.0001904146483866498 0.20378983020782472 0
vt 0.02281069196760654 0.18674695491790772 0
vt 0.00019041253835894167 0.18605083227157592 0
vt 0.18781678378582 0.18401390314102172 0
vt 0.06163201481103897 0.18538039922714232 0
vt 0.33014151453971864 0.18605077266693116 0
vt 0.29945123195648192 0.18401390314102172 0
vt 0.35765269398689272 0.20175296068191528 0
vt 0.3560631573200226 0.18538039922714232 0
vt 0.34145161509513856 0.54147619009017944 0
vt 0.35441252589225768 0.54080581665039064 0
vt 0.29945126175880432 0.54010963439941408 0
vt 0.15058498084545136 0.54147619009017944 0
vt 0.22822771966457368 0.54080581665039064 0
vt 0.08107330650091171 0.5401097536087036 0
vt 0.01633032225072384 0.53807282447814944 0
vt 0.03253135457634926 0.53943932056427 0
vt 0.0034306333400309 0.54080587625503544 0
vt 0.457699716091156 0.81363797187805168 0
vt 0.47112721204757688 0.8277181386947632 0
vt 0.47879037261009216 0.74959850311279296 0
vt 0.51424956321716312 0.83959627151489264 0
vt 0.7040696740150452 0.84014564752578736 0
vt 0.82174754142761232 0.88439387083053584 0
vt 0.85764747858047488 0.86622732877731328 0
vt 0.89914399385452272 0.86031329631805424 0
vt 0.86600524187088016 0.80576068162918096 0
vt 0.93772536516189568 0.43522745370864872 0
vt 0.92897033691406256 0.4342777729034424 0
vt 0.76603984832763664 0.32033729553222656 0
vt 0.68114322423934936 0.26035261154174804 0
vt 0.85784292221069328 0.38857650756835936 0
vt 0.607174813747406 0.31721979379653932 0
vt 0.53412818908691408 0.3280766010284424 0
vt 0.52355706691741944 0.34565341472625732 0
vt 0.50679981708526608 0.36177933216094968 0
vt 0.37052589654922488 0.8854301571846008 0
vt 0.47112721204757688 0.8277181386947632 0
vt 0.457699716091156 0.81363797187805168 0
vt 0.40840667486190792 0.91739940643310544 0
vt 0.51424956321716312 0.83959627151489264 0
vt 0.47113093733787536 0.94044387340545648 0
vt 0.7040696740150452 0.84014564752578736 0
vt 0.69315916299819944 0.99993294477462768 0
vt 0.82174754142761232 0.88439387083053584 0
vt 0.90370917320251472 0.98331230878829952 0
vt 0.85764747858047488 0.86622732877731328 0
vt 0.94535827636718752 0.92638033628463744 0
vt 0.89914399385452272 0.86031329631805424 0
vt 0.98875260353088384 0.8861395716667176 0
vt 0.98875260353088384 0.8861395716667176 0
vt 0.86600524187088016 0.80576068162918096 0
vt 0.89914399385452272 0.86031329631805424 0
vt 0.99079847335815424 0.8505935072898864 0
vt 0.93772536516189568 0.43522745370864872 0
vt 0.99978160858154304 0.31794071197509764 0
vt 0.99978160858154304 0.31794071197509764 0
vt 0.92897033691406256 0.4342777729034424 0
vt 0.93772536516189568 0.43522745370864872 0
vt 0.99122178554534912 0.31917226314544676 0
vt 0.85784292221069328 0.38857650756835936 0
vt 0.91301661729812624 0.26931166648864748 0
vt 0.76603984832763664 0.32033729553222656 0
vt 0.7905505299568176 0.1816391944885254 0
vt 0.68114322423934936 0.26035261154174804 0
vt 0.62981444597244264 0.16575324535369874 0
vt 0.607174813747406 0.31721979379653932 0
vt 0.4985042214393616 0.21943032741546632 0
vt 0.53412818908691408 0.3280766010284424 0
vt 0.41809722781181336 0.27808046340942384 0
vt 0.52355706691741944 0.34565341472625732 0
vt 0.39321097731590272 0.30034017562866212 0
vt 0.50679981708526608 0.36177933216094968 0
vt 0.36352562904357912 0.30954039096832276 0
vt 0.36352562904357912 0.30954039096832276 0
vt 0.47879037261009216 0.74959850311279296 0
vt 0.50679981708526608 0.36177933216094968 0
vt 0.34923824667930604 0.85168707370758064 0
vt 0.457699716091156 0.81363797187805168 0
vt 0.37052589654922488 0.8854301571846008 0
# 80 texture coords

g root
usemtl Material_58
s 1
f 1/1/1 2/2/2 3/3/3
f 2/2/2 4/4/4 5/5/5
f 4/4/4 6/6/6 7/7/7
f 6/6/6 8/8/8 9/9/9
f 8/8/8 10/10/10 11/11/11
f 12/12/12 13/13/13 14/14/14
f 12/12/12 15/15/15 13/13/13
f 15/15/15 16/16/16 17/17/17
f 16/16/16 1/1/1 18/18/18
f 1/1/1 4/4/4 2/2/2
f 4/4/4 8/8/8 6/6/6
f 8/8/8 12/12/12 10/10/10
f 12/12/12 16/16/16 15/15/15
f 16/16/16 4/4/4 1/1/1
f 4/4/4 12/12/12 8/8/8
f 4/4/4 16/16/16 12/12/12
f 19/19/19 20/20/20 21/21/21
f 22/22/22 23/23/23 20/20/20
f 24/24/24 25/25/25 23/23/23
f 26/26/26 27/27/27 25/25/25
f 28/28/28 29/29/29 27/27/27
f 30/30/30 31/31/31 32/32/32
f 31/31/31 33/33/33 32/32/32
f 34/34/34 35/35/35 33/33/33
f 36/36/36 21/21/21 35/35/35
f 20/20/20 23/23/23 21/21/21
f 25/25/25 27/27/27 23/23/23
f 29/29/29 32/32/32 27/27/27
f 33/33/33 35/35/35 32/32/32
f 21/21/21 23/23/23 35/35/35
f 27/27/27 32/32/32 23/23/23
f 32/32/32 35/35/35 23/23/23
f 37/37/37 38/38/38 39/39/39
f 37/37/37 40/40/40 38/38/38
f 40/40/40 41/41/41 38/38/38
f 40/40/40 42/42/42 41/41/41
f 42/42/42 43/43/43 41/41/41
f 42/42/42 44/44/44 43/43/43
f 44/44/44 45/45/45 43/43/43
f 44/44/44 46/46/46 45/45/45
f 46/46/46 47/47/47 45/45/45
f 46/46/46 48/48/48 47/47/47
f 48/48/48 49/49/49 47/47/47
f 48/48/48 50/50/50 49/49/49
f 51/51/51 52/52/52 53/53/53
f 51/51/51 54/54/54 52/52/52
f 54/54/54 55/55/55 52/52/52
f 54/54/54 56/56/56 55/55/55
f 57/57/57 58/58/58 59/59/59
f 57/57/57 60/60/60 58/58/58
f 60/60/60 61/61/61 58/58/58
f 60/60/60 62/62/62 61/61/61
f 62/62/62 63/63/63 61/61/61
f 62/62/62 64/64/64 63/63/63
f 64/64/64 65/65/65 63/63/63
f 64/64/64 66/66/66 65/65/65
f 66/66/66 67/67/67 65/65/65
f 66/66/66 68/68/68 67/67/67
f 68/68/68 69/69/69 67/67/67
f 68/68/68 70/70/70 69/69/69
f 70/70/70 71/71/71 69/69/69
f 70/70/70 72/72/72 71/71/71
f 72/72/72 73/73/73 71/71/71
f 72/72/72 74/74/74 73/73/73
f 75/75/75 76/76/76 77/77/77
f 75/75/75 78/78/78 76/76/76
f 78/78/78 79/79/79 76/76/76
f 78/78/78 80/80/80 79/79/79
#68 polygons

