# Blender v3.1.2 OBJ File: 'pc.blend'
# www.blender.org
mtllib table.mtl
o Table_Box002
v 1.807380 -0.199959 -6.983710
v 1.807380 -0.199959 -5.953230
v 2.837850 -0.199959 -6.983710
v 2.837850 -0.199959 -5.953230
v 2.837850 -13.529389 -5.953232
v 1.807380 -13.529389 -5.953232
v 2.837850 -13.529389 -6.983712
v 1.807380 -13.529389 -6.983712
v -18.813381 -0.199959 -6.983710
v -18.813381 -0.199959 -5.953230
v -17.782900 -0.199959 -6.983710
v -17.782900 -0.199959 -5.953230
v -17.782900 -13.529389 -5.953232
v -18.813381 -13.529389 -5.953232
v -17.782900 -13.529389 -6.983712
v -18.813381 -13.529389 -6.983712
v 1.807380 -0.199961 6.398940
v 1.807380 -0.199961 7.429410
v 2.837850 -0.199961 6.398940
v 2.837850 -0.199961 7.429410
v 2.837850 -13.529391 7.429408
v 1.807380 -13.529391 7.429408
v 2.837850 -13.529391 6.398938
v 1.807380 -13.529391 6.398938
v -18.813381 -0.199961 6.398940
v -18.813381 -0.199961 7.429410
v -17.782900 -0.199961 6.398940
v -17.782900 -0.199961 7.429410
v -17.782900 -13.529391 7.429408
v -18.813381 -13.529391 7.429408
v -17.782900 -13.529391 6.398938
v -18.813381 -13.529391 6.398938
v -18.983360 0.000001 -7.126250
v -18.983360 -0.000001 7.565610
v 2.971260 0.000001 -7.126250
v 2.971260 -0.000001 7.565610
v 2.971260 -0.443531 7.565610
v -18.983360 -0.443531 7.565610
v 2.971260 -0.443529 -7.126250
v -18.983360 -0.443529 -7.126250
vt 0.462650 0.616783
vt 0.462650 0.595663
vt 0.483770 0.616783
vt 0.483770 0.595663
vt 0.440605 0.557759
vt 0.455539 0.542825
vt 0.455539 0.572694
vt 0.456464 0.557759
vt 0.471398 0.542825
vt 0.471398 0.572694
vt 0.776022 0.946358
vt 0.776022 0.967478
vt 0.502824 0.946358
vt 0.110372 0.544453
vt 0.131430 0.542825
vt 0.131430 0.816838
vt 0.329456 0.816023
vt 0.308335 0.816023
vt 0.329456 0.542825
vt 0.273660 0.861852
vt 0.273660 0.882973
vt 0.000462 0.861852
vt 0.176318 0.544453
vt 0.197376 0.542825
vt 0.197376 0.816838
vt 0.154336 0.544453
vt 0.175394 0.542825
vt 0.175394 0.816838
vt 0.285366 0.816023
vt 0.264246 0.816023
vt 0.285366 0.542825
vt 0.044426 0.544453
vt 0.065484 0.542825
vt 0.065484 0.816838
vt 0.440605 0.573618
vt 0.461725 0.573618
vt 0.440605 0.594739
vt 0.461725 0.594739
vt 0.461725 0.595663
vt 0.461725 0.616784
vt 0.440605 0.595663
vt 0.483770 0.573618
vt 0.483770 0.594739
vt 0.462650 0.573618
vt 0.395591 0.816023
vt 0.374470 0.816023
vt 0.395591 0.542825
vt 0.373546 0.816023
vt 0.352425 0.816023
vt 0.373546 0.542825
vt 0.351501 0.816023
vt 0.330380 0.816023
vt 0.351501 0.542825
vt 0.273660 0.883897
vt 0.273660 0.905018
vt 0.000462 0.883897
vt 0.000462 0.544453
vt 0.021520 0.542825
vt 0.021520 0.816838
vt 0.273660 0.817762
vt 0.273660 0.838883
vt 0.000462 0.817762
vt 0.307411 0.816023
vt 0.286291 0.816023
vt 0.307411 0.542825
vt 0.066408 0.544453
vt 0.087466 0.542825
vt 0.087466 0.816838
vt 0.483770 0.639753
vt 0.483770 0.660873
vt 0.462650 0.639753
vt 0.462650 0.660873
vt 0.472322 0.557759
vt 0.487257 0.542825
vt 0.487257 0.572693
vt 0.461725 0.682918
vt 0.440605 0.682918
vt 0.461725 0.661797
vt 0.273660 0.950031
vt 0.273660 0.971152
vt 0.000462 0.950032
vt 0.088390 0.544453
vt 0.109448 0.542825
vt 0.109448 0.816838
vt 0.220282 0.544453
vt 0.241339 0.542825
vt 0.241339 0.816838
vt 0.273660 0.972076
vt 0.273660 0.993196
vt 0.000462 0.972076
vt 0.198300 0.544453
vt 0.219357 0.542825
vt 0.219357 0.816838
vt 0.132354 0.544453
vt 0.153412 0.542825
vt 0.153412 0.816838
vt 0.273660 0.905942
vt 0.273660 0.927062
vt 0.000462 0.905942
vt 0.273660 0.927987
vt 0.273660 0.949107
vt 0.000462 0.927987
vt 0.461725 0.617708
vt 0.461725 0.638828
vt 0.440605 0.617708
vt 0.440605 0.638828
vt 0.483770 0.617708
vt 0.483770 0.638828
vt 0.462650 0.617708
vt 0.461725 0.639753
vt 0.461725 0.660873
vt 0.440605 0.639753
vt 0.439681 0.816023
vt 0.418560 0.816023
vt 0.439681 0.542825
vt 0.417636 0.816023
vt 0.396515 0.816023
vt 0.417636 0.542825
vt 0.242264 0.544453
vt 0.263321 0.542825
vt 0.263321 0.816838
vt 0.776022 0.968402
vt 0.776022 0.989523
vt 0.502824 0.968402
vt 0.022444 0.544453
vt 0.043502 0.542825
vt 0.043502 0.816838
vt 0.273660 0.839807
vt 0.273660 0.860928
vt 0.000462 0.839807
vt 0.776022 0.902268
vt 0.776022 0.923388
vt 0.502824 0.902268
vt 0.776022 0.924313
vt 0.776022 0.945433
vt 0.502824 0.924313
vt 0.803946 0.450441
vt 0.502824 0.450441
vt 0.803946 0.000462
vt 0.803946 0.901344
vt 0.502824 0.901344
vt 0.803946 0.451365
vt 0.000462 0.374431
vt 0.250719 0.000462
vt 0.250719 0.541900
vt 0.501900 0.167932
vt 0.251643 0.541900
vt 0.251643 0.000462
vt 0.824897 0.450335
vt 0.833986 0.000462
vt 0.833986 0.450518
vt 0.814884 0.450335
vt 0.823973 0.000462
vt 0.823973 0.450518
vt 0.834911 0.301436
vt 0.843997 0.000462
vt 0.843997 0.301710
vt 0.814884 0.752416
vt 0.823971 0.451442
vt 0.823971 0.752691
vt 0.952789 0.999538
vt 0.502824 0.999536
vt 0.952789 0.990447
vt 0.804871 0.450335
vt 0.813960 0.000462
vt 0.813960 0.450518
vt 0.824895 0.752416
vt 0.833982 0.451442
vt 0.833982 0.752691
vt 0.804871 0.752416
vt 0.813958 0.451442
vt 0.813958 0.752691
vn 0.0000 1.0000 0.0000
vn 0.0000 -1.0000 0.0000
vn 0.0000 -0.0000 1.0000
vn 1.0000 0.0000 0.0000
vn 0.0000 0.0000 -1.0000
vn -1.0000 0.0000 0.0000
usemtl Table
s 1
f 1/1/1 2/2/1 3/3/1
f 4/4/1 3/3/1 2/2/1
f 5/5/2 6/6/2 7/7/2
f 8/8/2 7/9/2 6/10/2
f 4/11/3 2/12/3 5/13/3
f 6/14/3 5/15/3 2/16/3
f 3/17/4 4/18/4 7/19/4
f 5/20/4 7/21/4 4/22/4
f 1/23/5 3/24/5 8/25/5
f 7/26/5 8/27/5 3/28/5
f 2/29/6 1/30/6 6/31/6
f 8/32/6 6/33/6 1/34/6
f 9/35/1 10/36/1 11/37/1
f 12/38/1 11/37/1 10/36/1
f 13/39/2 14/40/2 15/41/2
f 16/42/2 15/43/2 14/44/2
f 12/45/3 10/46/3 13/47/3
f 14/48/3 13/49/3 10/50/3
f 11/51/4 12/52/4 15/53/4
f 13/54/4 15/55/4 12/56/4
f 9/57/5 11/58/5 16/59/5
f 15/60/5 16/61/5 11/62/5
f 10/63/6 9/64/6 14/65/6
f 16/66/6 14/67/6 9/68/6
f 17/69/1 18/70/1 19/71/1
f 20/72/1 19/71/1 18/70/1
f 21/73/2 22/74/2 23/75/2
f 24/76/2 23/77/2 22/78/2
f 20/79/3 18/80/3 21/81/3
f 22/82/3 21/83/3 18/84/3
f 19/85/4 20/86/4 23/87/4
f 21/88/4 23/89/4 20/90/4
f 17/91/5 19/92/5 24/93/5
f 23/94/5 24/95/5 19/96/5
f 18/97/6 17/98/6 22/99/6
f 24/100/6 22/101/6 17/102/6
f 25/103/1 26/104/1 27/105/1
f 28/106/1 27/105/1 26/104/1
f 29/107/2 30/108/2 31/109/2
f 32/110/2 31/111/2 30/112/2
f 28/113/3 26/114/3 29/115/3
f 30/116/3 29/117/3 26/118/3
f 27/119/4 28/120/4 31/121/4
f 29/122/4 31/123/4 28/124/4
f 25/125/5 27/126/5 32/127/5
f 31/128/5 32/129/5 27/130/5
f 26/131/6 25/132/6 30/133/6
f 32/134/6 30/135/6 25/136/6
f 33/137/1 34/138/1 35/139/1
f 36/140/1 35/141/1 34/142/1
f 37/143/2 38/144/2 39/145/2
f 40/146/2 39/147/2 38/148/2
f 36/149/3 34/150/3 37/151/3
f 38/152/3 37/153/3 34/154/3
f 35/155/4 36/156/4 39/157/4
f 37/158/4 39/159/4 36/160/4
f 33/161/5 35/162/5 40/163/5
f 39/164/5 40/165/5 35/166/5
f 34/167/6 33/168/6 38/169/6
f 40/170/6 38/171/6 33/172/6
